<mxfile host="Electron" modified="2024-01-31T04:18:09.394Z" agent="Mozilla/5.0 (Windows NT 10.0; Win64; x64) AppleWebKit/537.36 (KHTML, like Gecko) draw.io/23.0.2 Chrome/120.0.6099.109 Electron/28.1.0 Safari/537.36" etag="1Q3rpI7O9pLRXTd_DEqe" version="23.0.2" type="device">
  <diagram name="第 1 页" id="v13s3amnl3860uk5IFBW">
    <mxGraphModel dx="1062" dy="723" grid="1" gridSize="10" guides="1" tooltips="1" connect="1" arrows="1" fold="1" page="1" pageScale="1" pageWidth="827" pageHeight="1169" math="0" shadow="0">
      <root>
        <mxCell id="0" />
        <mxCell id="1" parent="0" />
        <mxCell id="BYJCr-ztZQvOaz_F4N2k-5" style="rounded=0;orthogonalLoop=1;jettySize=auto;html=1;endArrow=none;endFill=0;" edge="1" parent="1" source="BYJCr-ztZQvOaz_F4N2k-7" target="BYJCr-ztZQvOaz_F4N2k-10">
          <mxGeometry relative="1" as="geometry" />
        </mxCell>
        <mxCell id="BYJCr-ztZQvOaz_F4N2k-6" style="edgeStyle=none;shape=connector;rounded=0;orthogonalLoop=1;jettySize=auto;html=1;labelBackgroundColor=default;strokeColor=default;align=center;verticalAlign=middle;fontFamily=Helvetica;fontSize=11;fontColor=default;endArrow=none;endFill=0;" edge="1" parent="1" source="BYJCr-ztZQvOaz_F4N2k-7" target="BYJCr-ztZQvOaz_F4N2k-13">
          <mxGeometry relative="1" as="geometry" />
        </mxCell>
        <mxCell id="BYJCr-ztZQvOaz_F4N2k-7" value="9" style="ellipse;whiteSpace=wrap;html=1;fontFamily=Times New Roman;fontSize=19;fillColor=none;strokeColor=none;" vertex="1" parent="1">
          <mxGeometry x="239" y="80" width="40" height="40" as="geometry" />
        </mxCell>
        <mxCell id="BYJCr-ztZQvOaz_F4N2k-8" style="edgeStyle=none;shape=connector;rounded=0;orthogonalLoop=1;jettySize=auto;html=1;labelBackgroundColor=default;strokeColor=default;align=center;verticalAlign=middle;fontFamily=Helvetica;fontSize=11;fontColor=default;endArrow=none;endFill=0;" edge="1" parent="1" source="BYJCr-ztZQvOaz_F4N2k-10" target="BYJCr-ztZQvOaz_F4N2k-18">
          <mxGeometry relative="1" as="geometry" />
        </mxCell>
        <mxCell id="BYJCr-ztZQvOaz_F4N2k-9" style="edgeStyle=none;shape=connector;rounded=0;orthogonalLoop=1;jettySize=auto;html=1;labelBackgroundColor=default;strokeColor=default;align=center;verticalAlign=middle;fontFamily=Helvetica;fontSize=11;fontColor=default;endArrow=none;endFill=0;" edge="1" parent="1" source="BYJCr-ztZQvOaz_F4N2k-10" target="BYJCr-ztZQvOaz_F4N2k-14">
          <mxGeometry relative="1" as="geometry" />
        </mxCell>
        <mxCell id="BYJCr-ztZQvOaz_F4N2k-10" value="8" style="ellipse;whiteSpace=wrap;html=1;fontFamily=Times New Roman;fontSize=19;fillColor=none;strokeColor=none;" vertex="1" parent="1">
          <mxGeometry x="180" y="140" width="40" height="40" as="geometry" />
        </mxCell>
        <mxCell id="BYJCr-ztZQvOaz_F4N2k-11" style="edgeStyle=none;shape=connector;rounded=0;orthogonalLoop=1;jettySize=auto;html=1;labelBackgroundColor=default;strokeColor=default;align=center;verticalAlign=middle;fontFamily=Helvetica;fontSize=11;fontColor=default;endArrow=none;endFill=0;" edge="1" parent="1" source="BYJCr-ztZQvOaz_F4N2k-13" target="BYJCr-ztZQvOaz_F4N2k-15">
          <mxGeometry relative="1" as="geometry" />
        </mxCell>
        <mxCell id="BYJCr-ztZQvOaz_F4N2k-12" style="edgeStyle=none;shape=connector;rounded=0;orthogonalLoop=1;jettySize=auto;html=1;labelBackgroundColor=default;strokeColor=default;align=center;verticalAlign=middle;fontFamily=Helvetica;fontSize=11;fontColor=default;endArrow=none;endFill=0;" edge="1" parent="1" source="BYJCr-ztZQvOaz_F4N2k-13" target="BYJCr-ztZQvOaz_F4N2k-19">
          <mxGeometry relative="1" as="geometry" />
        </mxCell>
        <mxCell id="BYJCr-ztZQvOaz_F4N2k-13" value="4" style="ellipse;whiteSpace=wrap;html=1;fontFamily=Times New Roman;fontSize=19;fillColor=none;strokeColor=none;" vertex="1" parent="1">
          <mxGeometry x="300" y="140" width="40" height="40" as="geometry" />
        </mxCell>
        <mxCell id="BYJCr-ztZQvOaz_F4N2k-14" value="5" style="ellipse;whiteSpace=wrap;html=1;fontFamily=Times New Roman;fontSize=19;fillColor=none;strokeColor=none;" vertex="1" parent="1">
          <mxGeometry x="210" y="200" width="40" height="40" as="geometry" />
        </mxCell>
        <mxCell id="BYJCr-ztZQvOaz_F4N2k-15" value="1" style="ellipse;whiteSpace=wrap;html=1;fontFamily=Times New Roman;fontSize=19;fillColor=none;strokeColor=none;" vertex="1" parent="1">
          <mxGeometry x="270" y="200" width="40" height="40" as="geometry" />
        </mxCell>
        <mxCell id="BYJCr-ztZQvOaz_F4N2k-16" style="edgeStyle=none;shape=connector;rounded=0;orthogonalLoop=1;jettySize=auto;html=1;labelBackgroundColor=default;strokeColor=default;align=center;verticalAlign=middle;fontFamily=Helvetica;fontSize=11;fontColor=default;endArrow=none;endFill=0;" edge="1" parent="1" source="BYJCr-ztZQvOaz_F4N2k-18" target="BYJCr-ztZQvOaz_F4N2k-20">
          <mxGeometry relative="1" as="geometry" />
        </mxCell>
        <mxCell id="BYJCr-ztZQvOaz_F4N2k-17" style="edgeStyle=none;shape=connector;rounded=0;orthogonalLoop=1;jettySize=auto;html=1;labelBackgroundColor=default;strokeColor=default;align=center;verticalAlign=middle;fontFamily=Helvetica;fontSize=11;fontColor=default;endArrow=none;endFill=0;" edge="1" parent="1" source="BYJCr-ztZQvOaz_F4N2k-18" target="BYJCr-ztZQvOaz_F4N2k-21">
          <mxGeometry relative="1" as="geometry" />
        </mxCell>
        <mxCell id="BYJCr-ztZQvOaz_F4N2k-18" value="7" style="ellipse;whiteSpace=wrap;html=1;fontFamily=Times New Roman;fontSize=19;fillColor=none;strokeColor=none;" vertex="1" parent="1">
          <mxGeometry x="150" y="200" width="40" height="40" as="geometry" />
        </mxCell>
        <mxCell id="BYJCr-ztZQvOaz_F4N2k-19" value="2" style="ellipse;whiteSpace=wrap;html=1;fontFamily=Times New Roman;fontSize=19;fillColor=none;strokeColor=none;" vertex="1" parent="1">
          <mxGeometry x="330" y="200" width="40" height="40" as="geometry" />
        </mxCell>
        <mxCell id="BYJCr-ztZQvOaz_F4N2k-20" value="3" style="ellipse;whiteSpace=wrap;html=1;fontFamily=Times New Roman;fontSize=19;fillColor=none;strokeColor=none;" vertex="1" parent="1">
          <mxGeometry x="120" y="260" width="40" height="40" as="geometry" />
        </mxCell>
        <mxCell id="BYJCr-ztZQvOaz_F4N2k-21" value="6" style="ellipse;whiteSpace=wrap;html=1;fontFamily=Times New Roman;fontSize=19;fillColor=none;strokeColor=none;" vertex="1" parent="1">
          <mxGeometry x="180" y="260" width="40" height="40" as="geometry" />
        </mxCell>
        <mxCell id="BYJCr-ztZQvOaz_F4N2k-58" value="" style="group" vertex="1" connectable="0" parent="1">
          <mxGeometry x="440" y="160" width="120" height="40" as="geometry" />
        </mxCell>
        <mxCell id="BYJCr-ztZQvOaz_F4N2k-39" value="&lt;font style=&quot;font-size: 19px;&quot; face=&quot;Times New Roman&quot;&gt;9&lt;/font&gt;" style="whiteSpace=wrap;html=1;aspect=fixed;" vertex="1" parent="BYJCr-ztZQvOaz_F4N2k-58">
          <mxGeometry width="40" height="40" as="geometry" />
        </mxCell>
        <mxCell id="BYJCr-ztZQvOaz_F4N2k-50" value="&lt;font face=&quot;Times New Roman&quot;&gt;&lt;span style=&quot;font-size: 19px;&quot;&gt;4&lt;/span&gt;&lt;/font&gt;" style="whiteSpace=wrap;html=1;aspect=fixed;" vertex="1" parent="BYJCr-ztZQvOaz_F4N2k-58">
          <mxGeometry x="80" width="40" height="40" as="geometry" />
        </mxCell>
        <mxCell id="BYJCr-ztZQvOaz_F4N2k-51" value="&lt;font face=&quot;Times New Roman&quot;&gt;&lt;span style=&quot;font-size: 19px;&quot;&gt;8&lt;/span&gt;&lt;/font&gt;" style="whiteSpace=wrap;html=1;aspect=fixed;" vertex="1" parent="BYJCr-ztZQvOaz_F4N2k-58">
          <mxGeometry x="40" width="40" height="40" as="geometry" />
        </mxCell>
        <mxCell id="BYJCr-ztZQvOaz_F4N2k-59" value="" style="group" vertex="1" connectable="0" parent="1">
          <mxGeometry x="680" y="160" width="120" height="40" as="geometry" />
        </mxCell>
        <mxCell id="BYJCr-ztZQvOaz_F4N2k-60" value="&lt;font face=&quot;Times New Roman&quot;&gt;&lt;span style=&quot;font-size: 19px;&quot;&gt;2&lt;/span&gt;&lt;/font&gt;" style="whiteSpace=wrap;html=1;aspect=fixed;" vertex="1" parent="BYJCr-ztZQvOaz_F4N2k-59">
          <mxGeometry width="40" height="40" as="geometry" />
        </mxCell>
        <mxCell id="BYJCr-ztZQvOaz_F4N2k-61" value="&lt;font face=&quot;Times New Roman&quot;&gt;&lt;span style=&quot;font-size: 19px;&quot;&gt;6&lt;/span&gt;&lt;/font&gt;" style="whiteSpace=wrap;html=1;aspect=fixed;" vertex="1" parent="BYJCr-ztZQvOaz_F4N2k-59">
          <mxGeometry x="80" width="40" height="40" as="geometry" />
        </mxCell>
        <mxCell id="BYJCr-ztZQvOaz_F4N2k-62" value="&lt;font face=&quot;Times New Roman&quot;&gt;&lt;span style=&quot;font-size: 19px;&quot;&gt;3&lt;/span&gt;&lt;/font&gt;" style="whiteSpace=wrap;html=1;aspect=fixed;" vertex="1" parent="BYJCr-ztZQvOaz_F4N2k-59">
          <mxGeometry x="40" width="40" height="40" as="geometry" />
        </mxCell>
        <mxCell id="BYJCr-ztZQvOaz_F4N2k-63" value="" style="group" vertex="1" connectable="0" parent="1">
          <mxGeometry x="560" y="160" width="120" height="40" as="geometry" />
        </mxCell>
        <mxCell id="BYJCr-ztZQvOaz_F4N2k-64" value="&lt;font face=&quot;Times New Roman&quot;&gt;&lt;span style=&quot;font-size: 19px;&quot;&gt;7&lt;/span&gt;&lt;/font&gt;" style="whiteSpace=wrap;html=1;aspect=fixed;" vertex="1" parent="BYJCr-ztZQvOaz_F4N2k-63">
          <mxGeometry width="40" height="40" as="geometry" />
        </mxCell>
        <mxCell id="BYJCr-ztZQvOaz_F4N2k-65" value="&lt;font face=&quot;Times New Roman&quot;&gt;&lt;span style=&quot;font-size: 19px;&quot;&gt;1&lt;/span&gt;&lt;/font&gt;" style="whiteSpace=wrap;html=1;aspect=fixed;" vertex="1" parent="BYJCr-ztZQvOaz_F4N2k-63">
          <mxGeometry x="80" width="40" height="40" as="geometry" />
        </mxCell>
        <mxCell id="BYJCr-ztZQvOaz_F4N2k-66" value="&lt;font face=&quot;Times New Roman&quot;&gt;&lt;span style=&quot;font-size: 19px;&quot;&gt;5&lt;/span&gt;&lt;/font&gt;" style="whiteSpace=wrap;html=1;aspect=fixed;" vertex="1" parent="BYJCr-ztZQvOaz_F4N2k-63">
          <mxGeometry x="40" width="40" height="40" as="geometry" />
        </mxCell>
        <mxCell id="BYJCr-ztZQvOaz_F4N2k-69" value="&lt;span style=&quot;font-size: 19px;&quot;&gt;a[0]&lt;/span&gt;" style="text;html=1;strokeColor=none;fillColor=none;align=center;verticalAlign=middle;whiteSpace=wrap;rounded=0;fontSize=11;fontFamily=Times New Roman;fontColor=default;" vertex="1" parent="1">
          <mxGeometry x="430" y="120" width="60" height="30" as="geometry" />
        </mxCell>
        <mxCell id="BYJCr-ztZQvOaz_F4N2k-70" value="&lt;span style=&quot;font-size: 19px;&quot;&gt;a[8]&lt;/span&gt;" style="text;html=1;strokeColor=none;fillColor=none;align=center;verticalAlign=middle;whiteSpace=wrap;rounded=0;fontSize=11;fontFamily=Times New Roman;fontColor=default;" vertex="1" parent="1">
          <mxGeometry x="750" y="120" width="60" height="30" as="geometry" />
        </mxCell>
      </root>
    </mxGraphModel>
  </diagram>
</mxfile>
